<svg xmlns="http://www.w3.org/2000/svg" viewBox="0 0 32 32">
  <defs>
    <linearGradient id="faviconGradient" x1="0%" y1="0%" x2="100%" y2="100%">
      <stop offset="0%" style="stop-color:#3B82F6"/>
      <stop offset="100%" style="stop-color:#8B5CF6"/>
    </linearGradient>
  </defs>
  
  <rect x="2" y="2" width="28" height="28" rx="6" fill="url(#faviconGradient)"/>
  <path d="M8 10 L8 22 Q8 24 10 24 L18 24 Q20 24 20 22 L20 19 L14 19 L14 16 L23 16 L23 22 Q23 27 18 27 L10 27 Q5 27 5 22 L5 10 Q5 5 10 5 L18 5 Q23 5 23 10 L23 13 L18 13 L18 10 Q18 8 16 8 L12 8 Q10 8 10 10 L10 22 Q10 24 12 24 L16 24 Q18 24 18 22 L18 20 L20 20 L20 22 Q20 25 16 25 L12 25 Q8 25 8 22 Z" fill="white"/>
  <circle cx="24" cy="8" r="3" fill="white"/>
</svg>
