<svg xmlns="http://www.w3.org/2000/svg" viewBox="0 0 100 100">
  <defs>
    <linearGradient id="gidGradient" x1="0%" y1="0%" x2="100%" y2="100%">
      <stop offset="0%" style="stop-color:#3B82F6;stop-opacity:1" />
      <stop offset="50%" style="stop-color:#6366F1;stop-opacity:1" />
      <stop offset="100%" style="stop-color:#8B5CF6;stop-opacity:1" />
    </linearGradient>
  </defs>
  
  <!-- Background rounded square -->
  <rect x="5" y="5" width="90" height="90" rx="18" fill="url(#gidGradient)"/>
  
  <!-- Inner highlight -->
  <rect x="12" y="12" width="76" height="76" rx="14" fill="none" stroke="rgba(255,255,255,0.2)" stroke-width="2"/>
  
  <!-- G Letter stylized as flow/chart -->
  <path d="M30 35 L30 65 Q30 70 35 70 L55 70 Q60 70 60 65 L60 58 L45 58 L45 52 L67 52 L67 65 Q67 78 55 78 L35 78 Q22 78 22 65 L22 35 Q22 22 35 22 L55 22 Q67 22 67 35 L67 42 L55 42 L55 35 Q55 32 52 32 L38 32 Q35 32 35 35 L35 65 Q35 68 38 68 L52 68 Q55 68 55 65 L55 62 L60 62 L60 65 Q60 72 52 72 L38 72 Q30 72 30 65 Z" fill="white"/>
  
  <!-- Flow indicator dot -->
  <circle cx="72" cy="30" r="8" fill="white" opacity="0.9"/>
  <circle cx="72" cy="30" r="4" fill="url(#gidGradient)"/>
</svg>
